<?xml version="1.0" encoding="UTF-8"?>
<svg id="Logotipo_5_1500_x_1500_px" data-name="Logotipo 5 1500 x 1500 px" xmlns="http://www.w3.org/2000/svg" xmlns:xlink="http://www.w3.org/1999/xlink" viewBox="0 0 1500 1500">
  <defs>
    <style>
      .cls-1 {
        fill: url(#Degradado_sin_nombre_17);
      }
    </style>
    <linearGradient id="Degradado_sin_nombre_17" data-name="Degradado sin nombre 17" x1="261.76" y1="1290.24" x2="1257.76" y2="294.24" gradientUnits="userSpaceOnUse">
      <stop offset=".26" stop-color="#10c8f3"/>
      <stop offset=".71" stop-color="#83e5b0"/>
    </linearGradient>
  </defs>
  <polygon points="686.79 719.41 751.2 639.05 680.27 515.97 558.21 515.97 686.79 719.41"/>
  <polygon points="797.23 871.27 861.85 791.01 992.66 997.31 871.29 997.31 797.23 871.27"/>
  <path class="cls-1" d="M271.23,1183.77c409.75-117.24,485.6-734.83,825.48-860.31l-88.43,58.25c128.36-81.57,212.64-91.36,212.64-91.36,0,0-227.22,74.15-324.47,241.07,0,0,283.49-362.62,571.92-171.12,0,0-193.78-108.45-430.35,96.96,0,0,90.92-81.03,198.61-99.76,0,0-14.47,1.64-32.54,15.78l64.81-8.07c-442.24,110.29-438.18,607.27-812.99,843.98,0,0,76.11-57.13,99.08-85.72,0,0-135.55,117.05-233.3,133.89,0,0,227.94-88.18,329.69-280.92,0,0-276.41,394.01-591.58,239.1,0,0,215,76.12,441.89-141.62,0,0-89.66,81.64-206.56,119.53,0,0,29.17-15.61,44.5-26.08l-68.39,16.4Z"/>
</svg>