<?xml version="1.0" encoding="UTF-8"?>
<svg id="Logotipo_5_1500_x_1500_px" data-name="Logotipo 5 1500 x 1500 px" xmlns="http://www.w3.org/2000/svg" xmlns:xlink="http://www.w3.org/1999/xlink" viewBox="0 0 1500 1500">
  <defs>
    <style>
      .cls-1 {
        fill: url(#Degradado_sin_nombre_17);
      }
    </style>
    <linearGradient id="Degradado_sin_nombre_17" data-name="Degradado sin nombre 17" x1="417.32" y1="1104.37" x2="1100.83" y2="420.86" gradientUnits="userSpaceOnUse">
      <stop offset=".26" stop-color="#10c8f3"/>
      <stop offset=".71" stop-color="#83e5b0"/>
    </linearGradient>
  </defs>
  <polygon points="709 712.64 753.2 657.49 704.52 573.03 620.76 573.03 709 712.64"/>
  <polygon points="784.79 816.85 829.13 761.77 918.9 903.35 835.61 903.35 784.79 816.85"/>
  <path class="cls-1" d="M423.82,1031.3c281.19-80.46,333.24-504.28,566.48-590.38l-60.69,39.98c88.08-55.98,145.93-62.7,145.93-62.7,0,0-155.93,50.88-222.67,165.43,0,0,194.54-248.85,392.48-117.43,0,0-132.98-74.42-295.32,66.54,0,0,62.39-55.61,136.3-68.46,0,0-9.93,1.13-22.33,10.83l44.48-5.54c-303.49,75.68-300.7,416.73-557.91,579.18,0,0,52.23-39.2,67.99-58.83,0,0-93.02,80.32-160.1,91.88,0,0,156.42-60.51,226.25-192.78,0,0-189.69,270.39-405.97,164.08,0,0,147.55,52.23,303.24-97.18,0,0-61.53,56.02-141.75,82.02,0,0,20.02-10.71,30.54-17.9l-46.94,11.26Z"/>
</svg>